<?xml version="1.0" standalone="no"?>
<!DOCTYPE svg PUBLIC "-//W3C//DTD SVG 20010904//EN"
 "http://www.w3.org/TR/2001/REC-SVG-20010904/DTD/svg10.dtd">
<svg version="1.0" xmlns="http://www.w3.org/2000/svg"
 width="16.000000pt" height="16.000000pt" viewBox="0 0 16.000000 16.000000"
 preserveAspectRatio="xMidYMid meet">
<metadata>
Created by potrace 1.11, written by Peter Selinger 2001-2013
</metadata>
<g transform="translate(0.000000,16.000000) scale(0.010191,-0.010191)"
fill="#000000" stroke="none">
<path d="M0 790 l0 -780 224 0 223 0 15 83 c9 45 35 198 59 339 l43 258 -49
50 -49 50 -155 2 -156 3 -3 28 -3 27 123 0 123 0 -73 72 -73 71 3 151 3 151
30 0 30 0 5 -142 5 -141 145 -136 c80 -75 149 -136 153 -136 5 0 51 29 102 65
107 75 104 59 39 186 l-36 73 22 18 c13 10 28 17 34 15 9 -2 86 -136 99 -172
5 -14 118 65 128 90 5 11 29 101 55 200 26 99 52 183 58 187 32 22 81 -9 72
-46 -2 -12 -8 -47 -11 -78 l-7 -57 58 16 c33 8 60 16 62 18 1 1 7 30 13 63 13
73 25 87 64 72 24 -9 26 -14 22 -43 -3 -17 -9 -54 -13 -82 -3 -27 -13 -58 -21
-67 -8 -9 -51 -25 -95 -34 -44 -10 -86 -23 -92 -30 -7 -7 -16 -50 -20 -96 -4
-46 -9 -93 -12 -104 -3 -12 -89 -93 -191 -180 l-186 -157 7 -91 c13 -170 17
-198 31 -180 9 14 16 14 33 5 30 -16 28 -34 -8 -87 -33 -47 -32 -41 -14 -192
l5 -42 367 2 367 3 3 778 2 777 -780 0 -780 0 0 -780z"/>
</g>
</svg>
